<?xml version="1.0" encoding="iso-8859-1"?>
<!-- Generator: Adobe Illustrator 19.0.0, SVG Export Plug-In . SVG Version: 6.00 Build 0)  -->
<svg version="1.1" id="Layer_1" xmlns="http://www.w3.org/2000/svg" xmlns:xlink="http://www.w3.org/1999/xlink" x="0px" y="0px"
	 viewBox="0 0 511.998 511.998" style="enable-background:new 0 0 511.998 511.998;" xml:space="preserve">
<path style="fill:#FFFFFF;" d="M88.662,499.528h334.674c21.084,0,38.175-17.092,38.175-38.177V90.662H50.485v370.69
	C50.485,482.438,67.578,499.528,88.662,499.528z"/>
<rect x="22.833" y="12.47" style="fill:#80D0E1;" width="466.33" height="78.195"/>
<rect x="120.294" y="211.442" style="fill:#FF7876;" width="271.415" height="167.315"/>
<g>
	<path style="fill:#58595B;" d="M489.165,0H22.833c-6.887,0-12.47,5.582-12.47,12.47v78.192c0,6.887,5.583,12.47,12.47,12.47h15.182
		v358.219c0,27.926,22.72,50.647,50.647,50.647h334.674c27.926,0,50.647-22.72,50.647-50.647V103.132h15.182
		c6.887,0,12.47-5.583,12.47-12.47V12.47C501.635,5.582,496.053,0,489.165,0z M449.043,461.353
		c0,14.174-11.532,25.707-25.707,25.707H88.662c-14.174,0-25.707-11.532-25.707-25.707V103.132h386.087V461.353z M476.695,78.192
		c-7.595,0-433.653,0-441.391,0V24.94h441.391V78.192z"/>
	<path style="fill:#58595B;" d="M120.296,391.22h271.408c6.888,0,12.47-5.582,12.47-12.47V211.442c0-6.888-5.582-12.47-12.47-12.47
		H120.296c-6.887,0-12.47,5.582-12.47,12.47V378.75C107.826,385.637,113.408,391.22,120.296,391.22z M132.766,223.912h246.468
		V366.28H132.766V223.912z"/>
</g>
<path style="fill:#FFFFFF;" d="M272.299,336.239v-20.118c0-2.609,2.115-4.724,4.725-4.724h20.118c2.609,0,4.724-2.115,4.724-4.724
	v-23.151c0-2.609-2.115-4.724-4.724-4.724h-20.118c-2.609,0-4.725-2.115-4.725-4.724v-20.118c0-2.609-2.115-4.724-4.724-4.724
	h-23.151c-2.609,0-4.724,2.115-4.724,4.724v20.118c0,2.609-2.115,4.724-4.724,4.724h-20.118c-2.609,0-4.724,2.115-4.724,4.724
	v23.151c0,2.609,2.115,4.724,4.724,4.724h20.118c2.609,0,4.724,2.115,4.724,4.724v20.118c0,2.609,2.115,4.724,4.724,4.724h23.151
	C270.184,340.963,272.299,338.848,272.299,336.239z"/>
<g>
</g>
<g>
</g>
<g>
</g>
<g>
</g>
<g>
</g>
<g>
</g>
<g>
</g>
<g>
</g>
<g>
</g>
<g>
</g>
<g>
</g>
<g>
</g>
<g>
</g>
<g>
</g>
<g>
</g>
</svg>
